P1
# Teste Letras corrigido: 16 de largura por 12 de altura
16 12
0 0 0 0 0 0 0 0 0 0 0 0 0 0 0 0
0 0 1 1 0 0 1 1 1 0 0 0 1 1 1 0
0 1 0 0 1 0 1 0 0 1 0 1 0 0 0 0
0 1 0 0 1 0 1 0 0 1 0 1 0 0 0 0
0 1 1 1 1 0 1 1 1 0 0 1 0 0 0 0
0 1 0 0 1 0 1 0 0 1 0 1 0 0 0 0
0 1 0 0 1 0 1 0 0 1 0 1 0 0 0 0
0 0 0 0 0 0 1 1 1 0 0 0 1 1 1 0
0 0 0 0 0 0 0 0 0 0 0 0 0 0 0 0
0 0 0 0 0 0 0 0 0 0 0 0 0 0 0 0
0 0 0 0 0 0 0 0 0 0 0 0 0 0 0 0
0 0 0 0 0 0 0 0 0 0 0 0 0 0 0 0