P1
# Teste Complexo: 1 Solido, 1 Com Furo, 1 Ferradura
10 10
0 0 0 0 0 0 0 0 0 0
0 1 1 0 0 0 1 1 1 0
0 1 1 0 0 0 1 0 1 0
0 0 0 0 0 0 1 1 1 0
0 0 0 0 0 0 0 0 0 0
0 1 1 1 0 0 0 0 0 0
0 1 0 0 0 0 0 0 0 0
0 1 1 1 0 0 0 0 0 0
0 0 0 0 0 0 0 0 0 0
0 0 0 0 0 0 0 0 0 0